<svg width="320" height="320" viewBox="0 0 320 320" fill="none" xmlns="http://www.w3.org/2000/svg">
<path d="M84.4425 196.365C85.3216 193.832 85.7982 191.118 85.7982 188.295C85.7982 174.409 74.265 163.153 60.0381 163.153C52.54 163.153 45.7901 166.279 41.0825 171.27L25.834 158.235C31.5972 156.822 36.7744 155.131 41.4913 153.334C42.0914 153.104 41.9806 152.222 41.3436 152.144L41.286 152.136C37.2894 151.645 33.2928 151.153 29.2917 150.662L29.2881 150.661C29.22 150.652 29.1518 150.643 29.0837 150.657C38.8878 147.661 47.1779 146.115 53.1692 145.252C61.1454 144.102 67.8015 143.77 76.1746 143.355C82.8445 143.022 88.3974 142.928 92.3024 142.891L97.5171 142.716C96.2108 146.395 94.9412 150.778 94.115 155.463C91.5855 169.823 94.1198 188.369 96.2892 196.503C92.3402 196.46 88.3913 196.414 84.4425 196.365Z" fill="#FF2D21" stroke="#DADADA" stroke-width="1.7" stroke-linejoin="round"/>
</svg>
