<svg width="53" height="48" viewBox="0 0 53 48" fill="none" xmlns="http://www.w3.org/2000/svg">
<g id="person.crop.circle.badge.fill" clip-path="url(#clip0_12085_97236)">
<g id="Group">
<path id="Vector" d="M31.575 44.9574C43.0458 44.9574 52.5429 35.4396 52.5429 23.9896C52.5429 12.5189 43.0251 3.02173 31.5545 3.02173C20.1043 3.02173 10.6072 12.5189 10.6072 23.9896C10.6072 35.4396 20.125 44.9574 31.575 44.9574ZM31.5545 41.8329C26.847 41.8329 22.0778 39.9005 18.9327 36.5497C21.1528 33.0552 25.9836 30.9995 31.5545 30.9995C37.0842 30.9995 41.9562 33.014 44.1968 36.5497C41.0311 39.9005 36.2825 41.8329 31.5545 41.8329ZM31.5545 27.5048C27.6076 27.4636 24.5036 24.1745 24.5036 19.7549C24.4829 15.6024 27.6281 12.1489 31.5545 12.1489C35.5014 12.1489 38.6054 15.6024 38.6054 19.7549C38.6054 24.1745 35.5219 27.5459 31.5545 27.5048Z" fill="#FF2D21"/>
<path id="Vector_2" d="M13.2591 47.9999C20.4745 47.9999 26.5182 41.9768 26.5182 34.7408C26.5182 27.4636 20.5361 21.4817 13.2591 21.4817C6.00257 21.4817 0 27.4636 0 34.7408C0 42.0383 5.98202 47.9999 13.2591 47.9999Z" fill="#1B1B1B"/>
<path id="Vector_3" d="M13.259 45.1836C18.912 45.1836 23.7018 40.4556 23.7018 34.7409C23.7018 29.0056 18.9943 24.2981 13.259 24.2981C7.54421 24.2981 2.81616 29.0261 2.81616 34.7409C2.81616 40.4967 7.54421 45.1836 13.259 45.1836Z" fill="#FF2D21"/>
<path id="Union" fill-rule="evenodd" clip-rule="evenodd" d="M12.8125 40.7362H8.12031C7.70371 40.7362 7.28407 40.4017 6.80074 39.6834C6.49068 39.2229 6.26438 38.7642 6.25658 38.7484L6.25639 38.748C5.85418 37.9047 5.96298 37.4208 6.32159 36.7711C7.1711 35.2332 10.5316 29.3427 10.9153 28.7528C11.4687 27.902 12.6719 27.9961 12.8125 28.0098V28.8473C12.587 28.8252 11.8546 28.8458 11.6158 29.2131C11.2507 29.7744 7.87619 35.6897 7.05321 37.1796C6.78861 37.6582 6.75639 37.8498 7.00961 38.3814C7.01113 38.3856 7.17224 38.7095 7.47095 39.1782C7.69499 39.5295 7.86974 39.7051 7.97854 39.7981C8.05208 39.861 8.14533 39.8949 8.24162 39.8949H12.8125V40.7362ZM13.2301 40.7362H17.9224C18.339 40.7362 18.7586 40.4017 19.2419 39.6834C19.552 39.2229 19.7782 38.7643 19.7861 38.7484L19.7861 38.7484L19.7863 38.748C20.1885 37.9047 20.0797 37.4208 19.7211 36.7711C18.8716 35.2332 15.5111 29.3427 15.1274 28.7528C14.574 27.902 13.3708 27.9961 13.2301 28.0098V28.8473C13.4557 28.8252 14.1881 28.8458 14.4269 29.2131C14.7919 29.7744 18.1665 35.6897 18.9895 37.1796C19.2541 37.6582 19.2863 37.8498 19.0331 38.3814C19.0316 38.3856 18.8704 38.7095 18.5717 39.1782C18.3477 39.5295 18.1729 39.7051 18.0641 39.7981C17.9906 39.861 17.8974 39.8949 17.8011 39.8949H13.2301V40.7362ZM13.2295 29.404H13.5957C13.8163 29.404 14.0203 29.5225 14.1306 29.7146L18.57 37.4528C18.6651 37.6185 18.6788 37.8193 18.6067 37.9969L18.4418 38.4042L17.1738 37.6906L13.2295 30.7552V29.404ZM7.89191 38.8099L8.07462 39.1288C8.18456 39.3209 8.3885 39.4394 8.60912 39.4398L17.4955 39.4447C17.6861 39.4447 17.8658 39.3563 17.983 39.2054L18.2517 38.8583L17.0034 38.1099L9.05682 38.1355L7.89191 38.8099ZM12.8131 29.404H12.4469C12.2263 29.404 12.0223 29.5225 11.912 29.7146L7.47264 37.4524C7.37749 37.6182 7.36384 37.819 7.43587 37.9965L7.60076 38.4039L8.86878 37.6902L12.8131 30.7552V29.404Z" fill="#1B1B1B"/>
</g>
</g>
<defs>
<clipPath id="clip0_12085_97236">
<rect width="52.543" height="48" fill="white"/>
</clipPath>
</defs>
</svg>
