<svg width="36" height="36" viewBox="0 0 36 36" fill="none" xmlns="http://www.w3.org/2000/svg">
<g id="Container">
<path id="Vector" d="M18 35.9999C27.8471 35.9999 36 27.8509 36 18.0087C36 8.18415 27.8295 0.0175781 17.9824 0.0175781C8.15295 0.0175781 0 8.18415 0 18.0087C0 27.8509 8.1706 35.9999 18 35.9999Z" fill="#FF2D21"/>
<path id="Vector_2" d="M13.5884 22.2597C9.33549 18.0265 6.63548 12.6291 9.8296 9.4189C9.90019 9.34836 9.97077 9.2778 10.0767 9.20725C11.2943 8.30769 12.4237 8.09603 13.1649 9.17197L15.4061 12.3292C16.1649 13.4052 16.0061 14.0578 15.159 14.9221L14.4531 15.6806C14.2237 15.9274 14.312 16.245 14.4179 16.4566C14.7884 17.074 15.6707 18.1675 16.6766 19.173C17.7002 20.196 18.759 21.0427 19.3943 21.4307C19.6414 21.5717 20.012 21.6071 20.2061 21.3953L20.9296 20.6898C21.7414 19.8784 22.4472 19.702 23.5238 20.4429C24.9885 21.4835 25.8885 22.1009 26.7355 22.7183C27.7943 23.512 27.565 24.7467 26.7531 25.6639C26.6473 25.7873 26.559 25.9107 26.4355 26.0343C23.2414 29.2269 17.8237 26.5281 13.5884 22.2597Z" fill="white"/>
</g>
</svg>
