<svg width="260" height="121" viewBox="0 0 260 121" fill="none" xmlns="http://www.w3.org/2000/svg">
    <path d="M88.5189 -1.56925L88.0139 -3.473L84.8096 2.00355L117.732 102.142C118.523 104.537 121.04 105.901 123.483 105.252L91.0249 7.82961C90.5352 5.96735 92.2746 4.28647 94.1159 4.85228L153.12 22.9106L154.437 18.6117L88.5189 -1.56925Z" fill="#2D2D2D" stroke="#1B1B1B" stroke-width="1.78"/>
    <path d="M153.811 76.1758L160.301 56.2782L156.18 54.7149L149.682 74.6118L153.811 76.1758Z" fill="#2D2D2D" stroke="#1B1B1B" stroke-width="1.78"/>
    <path d="M129.867 74.6121L123.378 54.715L119.258 56.2783L125.747 76.1754L129.867 74.6121Z" fill="#2D2D2D" stroke="#1B1B1B" stroke-width="1.78"/>
    <mask id="path-4-inside-1_5514_26170" fill="white">
        <path fill-rule="evenodd" clip-rule="evenodd" d="M149.114 36.8261L146.965 36.1284C146.388 35.9424 145.774 36.2587 145.597 36.8168L142.593 46.0171C142.522 46.2373 142.522 46.4629 142.583 46.6681H136.962C137.022 46.4629 137.023 46.2373 136.952 46.0171L133.947 36.8168C133.771 36.2587 133.147 35.9424 132.58 36.1284L130.431 36.8261L130.273 36.3517C130.068 35.7377 129.408 35.3935 128.794 35.5982L123.37 37.3657C122.756 37.5703 122.412 38.2308 122.617 38.8448L122.775 39.3192L118.096 40.8448L117.938 40.3704C117.733 39.7564 117.073 39.4122 116.459 39.6169L111.035 41.3844C110.421 41.589 110.077 42.2495 110.282 42.8635L110.44 43.3379L108.291 44.0356C107.714 44.2217 107.407 44.8356 107.593 45.4124L110.598 54.6126C110.784 55.1894 111.398 55.4964 111.975 55.3103L124.677 51.1686L124.229 52.5567C124.085 53.0036 123.966 53.4569 123.874 53.9143L112.571 57.599L113.957 60.2037L120.172 66.2317C120.692 66.7434 121.465 66.9201 122.153 66.6876L126.541 65.2531C126.662 65.3489 126.789 65.4373 126.921 65.5178V76.4278H136.457V77.33H152.643V65.5233C152.775 65.4436 152.901 65.3561 153.022 65.2612L157.384 66.6871C158.072 66.9197 158.844 66.7429 159.365 66.2313L165.579 60.2032L166.965 57.5985L155.693 53.9238C155.601 53.4635 155.482 53.007 155.337 52.5567L154.891 51.1763L167.57 55.3103C168.147 55.4964 168.761 55.1894 168.947 54.6126L171.952 45.4124C172.138 44.8356 171.831 44.2216 171.254 44.0356L169.105 43.3379L169.263 42.8635C169.468 42.2495 169.124 41.589 168.51 41.3844L163.086 39.6169C162.472 39.4122 161.812 39.7564 161.607 40.3704L161.449 40.8448L156.77 39.3192L156.928 38.8448C157.133 38.2308 156.788 37.5703 156.174 37.3657L150.751 35.5982C150.137 35.3935 149.477 35.7377 149.272 36.3517L149.114 36.8261Z"/>
    </mask>
    <path fill-rule="evenodd" clip-rule="evenodd" d="M149.114 36.8261L146.965 36.1284C146.388 35.9424 145.774 36.2587 145.597 36.8168L142.593 46.0171C142.522 46.2373 142.522 46.4629 142.583 46.6681H136.962C137.022 46.4629 137.023 46.2373 136.952 46.0171L133.947 36.8168C133.771 36.2587 133.147 35.9424 132.58 36.1284L130.431 36.8261L130.273 36.3517C130.068 35.7377 129.408 35.3935 128.794 35.5982L123.37 37.3657C122.756 37.5703 122.412 38.2308 122.617 38.8448L122.775 39.3192L118.096 40.8448L117.938 40.3704C117.733 39.7564 117.073 39.4122 116.459 39.6169L111.035 41.3844C110.421 41.589 110.077 42.2495 110.282 42.8635L110.44 43.3379L108.291 44.0356C107.714 44.2217 107.407 44.8356 107.593 45.4124L110.598 54.6126C110.784 55.1894 111.398 55.4964 111.975 55.3103L124.677 51.1686L124.229 52.5567C124.085 53.0036 123.966 53.4569 123.874 53.9143L112.571 57.599L113.957 60.2037L120.172 66.2317C120.692 66.7434 121.465 66.9201 122.153 66.6876L126.541 65.2531C126.662 65.3489 126.789 65.4373 126.921 65.5178V76.4278H136.457V77.33H152.643V65.5233C152.775 65.4436 152.901 65.3561 153.022 65.2612L157.384 66.6871C158.072 66.9197 158.844 66.7429 159.365 66.2313L165.579 60.2032L166.965 57.5985L155.693 53.9238C155.601 53.4635 155.482 53.007 155.337 52.5567L154.891 51.1763L167.57 55.3103C168.147 55.4964 168.761 55.1894 168.947 54.6126L171.952 45.4124C172.138 44.8356 171.831 44.2216 171.254 44.0356L169.105 43.3379L169.263 42.8635C169.468 42.2495 169.124 41.589 168.51 41.3844L163.086 39.6169C162.472 39.4122 161.812 39.7564 161.607 40.3704L161.449 40.8448L156.77 39.3192L156.928 38.8448C157.133 38.2308 156.788 37.5703 156.174 37.3657L150.751 35.5982C150.137 35.3935 149.477 35.7377 149.272 36.3517L149.114 36.8261Z" fill="#2D2D2D"/>
    <path d="M146.965 36.1284L147.511 34.4344L147.515 34.4354L146.965 36.1284ZM149.114 36.8261L150.802 37.389L150.244 39.0645L148.564 38.5191L149.114 36.8261ZM145.597 36.8168L147.294 37.3542L147.292 37.3618L147.289 37.3694L145.597 36.8168ZM142.593 46.0171L140.899 45.4706L140.901 45.4644L142.593 46.0171ZM142.583 46.6681L144.291 46.1662L144.961 48.4481H142.583V46.6681ZM136.962 46.6681V48.4481H134.584L135.254 46.1663L136.962 46.6681ZM136.952 46.0171L138.644 45.4644L138.646 45.4706L136.952 46.0171ZM133.947 36.8168L132.255 37.3694L132.253 37.3618L132.25 37.3542L133.947 36.8168ZM132.58 36.1284L133.135 37.8198L133.13 37.8214L132.58 36.1284ZM130.431 36.8261L130.981 38.5191L129.301 39.0645L128.742 37.389L130.431 36.8261ZM130.273 36.3517L131.962 35.7888V35.7888L130.273 36.3517ZM128.794 35.5982L129.357 37.2869L129.345 37.2906L128.794 35.5982ZM123.37 37.3657L122.807 35.677L122.819 35.6733L123.37 37.3657ZM122.617 38.8448L120.928 39.4077L120.928 39.4077L122.617 38.8448ZM122.775 39.3192L124.464 38.7563L125.03 40.4561L123.327 41.0115L122.775 39.3192ZM118.096 40.8448L118.648 42.5372L116.966 43.0853L116.407 41.4078L118.096 40.8448ZM117.938 40.3704L116.249 40.9333L116.249 40.9333L117.938 40.3704ZM116.459 39.6169L117.021 41.3056L117.01 41.3093L116.459 39.6169ZM111.035 41.3844L110.472 39.6957L110.484 39.692L111.035 41.3844ZM110.282 42.8635L108.593 43.4264L108.593 43.4264L110.282 42.8635ZM110.44 43.3379L112.128 42.775L112.696 44.4769L110.989 45.0309L110.44 43.3379ZM108.291 44.0356L108.841 45.7286L108.837 45.7296L108.291 44.0356ZM107.593 45.4124L105.901 45.965L105.899 45.9588L107.593 45.4124ZM110.598 54.6126L112.29 54.06L112.292 54.0662L110.598 54.6126ZM111.975 55.3103L112.527 57.0027L112.521 57.0044L111.975 55.3103ZM124.677 51.1686L124.125 49.4763L127.443 48.3945L126.371 51.7155L124.677 51.1686ZM124.229 52.5567L125.923 53.1036L125.923 53.1042L124.229 52.5567ZM123.874 53.9143L125.619 54.2663L125.413 55.2846L124.426 55.6066L123.874 53.9143ZM112.571 57.599L111 58.4351L110.004 56.5637L112.02 55.9066L112.571 57.599ZM113.957 60.2037L112.718 61.4813L112.517 61.2867L112.386 61.0399L113.957 60.2037ZM120.172 66.2317L121.411 64.9541L121.419 64.9618L120.172 66.2317ZM122.153 66.6876L121.583 65.0012L121.592 64.9984L121.6 64.9957L122.153 66.6876ZM126.541 65.2531L125.988 63.5612L126.896 63.2643L127.645 63.857L126.541 65.2531ZM126.921 65.5178L127.848 63.9982L128.701 64.5185V65.5178H126.921ZM126.921 76.4278V78.2078H125.141V76.4278H126.921ZM136.457 76.4278V74.6478H138.237V76.4278H136.457ZM136.457 77.33V79.11H134.677V77.33H136.457ZM152.643 77.33H154.423V79.11H152.643V77.33ZM152.643 65.5233H150.863V64.5203L151.721 64.0007L152.643 65.5233ZM153.022 65.2612L151.922 63.8616L152.67 63.2736L153.575 63.5693L153.022 65.2612ZM157.384 66.6871L157.937 64.9953L157.945 64.998L157.953 65.0008L157.384 66.6871ZM159.365 66.2313L158.118 64.9613L158.126 64.9537L159.365 66.2313ZM165.579 60.2032L167.15 61.0394L167.019 61.2862L166.818 61.4809L165.579 60.2032ZM166.965 57.5985L167.517 55.9062L169.532 56.5632L168.537 58.4347L166.965 57.5985ZM155.693 53.9238L155.141 55.6161L154.153 55.2938L153.948 54.2743L155.693 53.9238ZM155.337 52.5567L157.031 52.0098L157.031 52.0109L155.337 52.5567ZM154.891 51.1763L153.197 51.7232L152.125 48.4022L155.443 49.484L154.891 51.1763ZM167.57 55.3103L167.024 57.0044L167.018 57.0026L167.57 55.3103ZM168.947 54.6126L167.253 54.0662L167.255 54.06L168.947 54.6126ZM171.952 45.4124L173.646 45.9588L173.644 45.965L171.952 45.4124ZM171.254 44.0356L170.707 45.7296L170.704 45.7286L171.254 44.0356ZM169.105 43.3379L168.555 45.0309L166.849 44.4769L167.416 42.775L169.105 43.3379ZM169.263 42.8635L170.952 43.4264L170.952 43.4264L169.263 42.8635ZM168.51 41.3844L169.061 39.6919L169.073 39.6957L168.51 41.3844ZM163.086 39.6169L162.535 41.3093L162.523 41.3055L163.086 39.6169ZM161.607 40.3704L159.918 39.8075L159.918 39.8075L161.607 40.3704ZM161.449 40.8448L163.138 41.4077L162.578 43.0853L160.897 42.5371L161.449 40.8448ZM156.77 39.3192L156.218 41.0115L154.515 40.4561L155.081 38.7563L156.77 39.3192ZM156.928 38.8448L155.239 38.2819L155.239 38.2819L156.928 38.8448ZM156.174 37.3657L156.726 35.6732L156.737 35.677L156.174 37.3657ZM150.751 35.5982L150.199 37.2906L150.188 37.2868L150.751 35.5982ZM149.272 36.3517L150.961 36.9146V36.9146L149.272 36.3517ZM147.515 34.4354L149.663 35.1331L148.564 38.5191L146.415 37.8214L147.515 34.4354ZM143.9 36.2794C144.382 34.7589 146.017 33.9524 147.511 34.4344L146.418 37.8225C146.759 37.9323 147.166 37.7584 147.294 37.3542L143.9 36.2794ZM140.901 45.4644L143.905 36.2642L147.289 37.3694L144.285 46.5697L140.901 45.4644ZM140.875 47.17C140.716 46.6286 140.716 46.0375 140.899 45.4706L144.287 46.5635C144.328 46.4371 144.329 46.2973 144.291 46.1662L140.875 47.17ZM136.962 44.8881H142.583V48.4481H136.962V44.8881ZM138.646 45.4706C138.829 46.0375 138.829 46.6286 138.67 47.17L135.254 46.1663C135.216 46.2973 135.217 46.4371 135.258 46.5635L138.646 45.4706ZM135.639 36.2642L138.644 45.4645L135.26 46.5697L132.255 37.3694L135.639 36.2642ZM132.025 34.437C133.514 33.9491 135.162 34.7573 135.644 36.2795L132.25 37.3542C132.379 37.7601 132.781 37.9356 133.135 37.8198L132.025 34.437ZM129.881 35.1331L132.03 34.4354L133.13 37.8214L130.981 38.5191L129.881 35.1331ZM131.962 35.7888L132.12 36.2632L128.742 37.389L128.584 36.9146L131.962 35.7888ZM128.231 33.9095C129.81 33.383 131.457 34.2754 131.962 35.7888L128.584 36.9146C128.679 37.2 129.005 37.404 129.357 37.2868L128.231 33.9095ZM122.819 35.6733L128.242 33.9058L129.345 37.2906L123.922 39.0581L122.819 35.6733ZM120.928 39.4077C120.402 37.8282 121.294 36.1815 122.807 35.677L123.933 39.0543C124.219 38.9592 124.423 38.6334 124.306 38.2819L120.928 39.4077ZM121.086 39.8821L120.928 39.4077L124.306 38.2819L124.464 38.7563L121.086 39.8821ZM117.544 39.1525L122.223 37.6269L123.327 41.0115L118.648 42.5372L117.544 39.1525ZM119.626 39.8075L119.784 40.2819L116.407 41.4078L116.249 40.9333L119.626 39.8075ZM115.896 37.9282C117.475 37.4017 119.122 38.2941 119.626 39.8075L116.249 40.9333C116.344 41.2187 116.67 41.4227 117.021 41.3055L115.896 37.9282ZM110.484 39.692L115.907 37.9245L117.01 41.3093L111.587 43.0768L110.484 39.692ZM108.593 43.4264C108.066 41.8468 108.959 40.2002 110.472 39.6957L111.598 43.073C111.883 42.9779 112.088 42.6522 111.97 42.3006L108.593 43.4264ZM108.751 43.9008L108.593 43.4264L111.97 42.3006L112.128 42.775L108.751 43.9008ZM107.741 42.3426L109.89 41.6449L110.989 45.0309L108.841 45.7286L107.741 42.3426ZM105.899 45.9588C105.418 44.4656 106.213 42.8356 107.744 42.3416L108.837 45.7296C109.215 45.6078 109.397 45.2056 109.287 44.8659L105.899 45.9588ZM108.906 55.1653L105.901 45.965L109.285 44.8598L112.29 54.06L108.906 55.1653ZM112.521 57.0044C111.028 57.4861 109.398 56.6905 108.904 55.1591L112.292 54.0662C112.17 53.6883 111.768 53.5067 111.428 53.6163L112.521 57.0044ZM125.229 52.8609L112.527 57.0027L111.423 53.618L124.125 49.4763L125.229 52.8609ZM122.535 52.0098L122.983 50.6217L126.371 51.7155L125.923 53.1036L122.535 52.0098ZM122.129 53.5622C122.235 53.039 122.37 52.5204 122.535 52.0091L125.923 53.1042C125.799 53.4867 125.698 53.8747 125.619 54.2663L122.129 53.5622ZM112.02 55.9066L123.322 52.2219L124.426 55.6066L113.123 59.2913L112.02 55.9066ZM112.386 61.0399L111 58.4351L114.143 56.7628L115.529 59.3675L112.386 61.0399ZM118.932 67.5094L112.718 61.4813L115.197 58.9261L121.411 64.9541L118.932 67.5094ZM122.723 68.3739C121.397 68.8217 119.923 68.4825 118.924 67.5017L121.419 64.9618C121.438 64.9807 121.465 64.9963 121.498 65.0039C121.531 65.0116 121.561 65.0088 121.583 65.0012L122.723 68.3739ZM127.094 66.945L122.706 68.3795L121.6 64.9957L125.988 63.5612L127.094 66.945ZM125.994 67.0374C125.8 66.9193 125.614 66.7897 125.437 66.6491L127.645 63.857C127.71 63.9081 127.777 63.9553 127.848 63.9982L125.994 67.0374ZM125.141 76.4278V65.5178H128.701V76.4278H125.141ZM136.457 78.2078H126.921V74.6478H136.457V78.2078ZM134.677 77.33V76.4278H138.237V77.33H134.677ZM152.643 79.11H136.457V75.55H152.643V79.11ZM154.423 65.5233V77.33H150.863V65.5233H154.423ZM154.122 66.6608C153.944 66.8003 153.758 66.9289 153.565 67.0459L151.721 64.0007C151.791 63.9584 151.858 63.9119 151.922 63.8616L154.122 66.6608ZM156.83 68.379L152.469 66.9531L153.575 63.5693L157.937 64.9953L156.83 68.379ZM160.612 67.5012C159.614 68.4821 158.139 68.8213 156.814 68.3735L157.953 65.0008C157.976 65.0084 158.005 65.0111 158.038 65.0035C158.072 64.9959 158.098 64.9802 158.118 64.9614L160.612 67.5012ZM166.818 61.4809L160.604 67.5089L158.126 64.9537L164.34 58.9256L166.818 61.4809ZM168.537 58.4347L167.15 61.0394L164.008 59.3671L165.394 56.7623L168.537 58.4347ZM156.245 52.2315L167.517 55.9062L166.413 59.2909L155.141 55.6161L156.245 52.2315ZM157.031 52.0109C157.197 52.5255 157.333 53.0472 157.438 53.5733L153.948 54.2743C153.869 53.8798 153.767 53.4885 153.643 53.1024L157.031 52.0109ZM156.585 50.6295L157.031 52.0098L153.643 53.1035L153.197 51.7232L156.585 50.6295ZM167.018 57.0026L154.339 52.8687L155.443 49.484L168.122 53.618L167.018 57.0026ZM170.641 55.1591C170.147 56.6905 168.517 57.486 167.024 57.0044L168.117 53.6163C167.777 53.5067 167.375 53.6883 167.253 54.0662L170.641 55.1591ZM173.644 45.965L170.639 55.1652L167.255 54.06L170.26 44.8598L173.644 45.965ZM171.8 42.3416C173.332 42.8356 174.127 44.4656 173.646 45.9588L170.258 44.8659C170.148 45.2056 170.33 45.6077 170.707 45.7296L171.8 42.3416ZM169.655 41.6449L171.804 42.3426L170.704 45.7286L168.555 45.0309L169.655 41.6449ZM170.952 43.4264L170.794 43.9008L167.416 42.775L167.574 42.3006L170.952 43.4264ZM169.073 39.6957C170.586 40.2002 171.478 41.8469 170.952 43.4264L167.574 42.3006C167.457 42.6521 167.661 42.9779 167.947 43.073L169.073 39.6957ZM163.638 37.9245L169.061 39.692L167.958 43.0768L162.535 41.3093L163.638 37.9245ZM159.918 39.8075C160.423 38.2941 162.07 37.4017 163.649 37.9282L162.523 41.3055C162.875 41.4227 163.201 41.2187 163.296 40.9333L159.918 39.8075ZM159.76 40.282L159.918 39.8075L163.296 40.9333L163.138 41.4077L159.76 40.282ZM157.322 37.6269L162.001 39.1525L160.897 42.5371L156.218 41.0115L157.322 37.6269ZM158.617 39.4076L158.458 39.8821L155.081 38.7563L155.239 38.2819L158.617 39.4076ZM156.737 35.677C158.251 36.1815 159.143 37.8282 158.617 39.4076L155.239 38.2819C155.122 38.6334 155.326 38.9592 155.612 39.0543L156.737 35.677ZM151.303 33.9058L156.726 35.6733L155.623 39.058L150.199 37.2906L151.303 33.9058ZM147.583 35.7888C148.088 34.2754 149.734 33.383 151.314 33.9095L150.188 37.2868C150.54 37.404 150.865 37.2 150.961 36.9146L147.583 35.7888ZM147.425 36.2632L147.583 35.7888L150.961 36.9146L150.802 37.389L147.425 36.2632Z" fill="#1B1B1B" mask="url(#path-4-inside-1_5514_26170)"/>
    <path d="M37.5667 95.2826C37.5667 97.625 39.4648 99.523 41.8071 99.523C44.1494 99.523 46.0475 97.6249 46.0475 95.2826C46.0475 92.9403 44.1494 91.0423 41.8071 91.0423C39.4648 91.0423 37.5667 92.9403 37.5667 95.2826Z" fill="#2D2D2D" stroke="#1B1B1B" stroke-width="1.78"/>
    <path d="M82.7213 95.291C82.7213 72.6958 64.4008 54.3753 41.8056 54.3753C19.2103 54.3753 0.889885 72.6873 0.889885 95.291C0.889885 117.886 19.2104 136.207 41.8056 136.207C64.4008 136.207 82.7213 117.886 82.7213 95.291Z" fill="#2D2D2D" stroke="#1B1B1B" stroke-width="1.78"/>
    <path d="M40.9387 126.301C58.0657 126.301 71.9577 112.418 71.9577 95.2824C71.9577 78.1469 58.0742 64.2634 40.9387 64.2634C23.8032 64.2634 9.91977 78.1469 9.91977 95.2824C9.91977 112.418 23.8032 126.301 40.9387 126.301Z" fill="#2D2D2D" stroke="#1B1B1B" stroke-width="1.78"/>
    <path d="M231.686 95.2826C231.686 97.6249 233.584 99.523 235.926 99.523C238.269 99.523 240.167 97.6249 240.167 95.2826C240.167 92.9403 238.269 91.0422 235.926 91.0422C233.584 91.0422 231.686 92.9403 231.686 95.2826Z" fill="#2D2D2D" stroke="#1B1B1B" stroke-width="1.78"/>
    <path d="M276.839 95.2915C276.839 72.6962 258.518 54.3757 235.923 54.3757C213.327 54.3757 195.007 72.6877 195.007 95.2915C195.007 117.887 213.328 136.207 235.923 136.207C258.518 136.207 276.839 117.887 276.839 95.2915Z" fill="#2D2D2D" stroke="#1B1B1B" stroke-width="1.78"/>
    <path d="M235.927 126.301C253.054 126.301 266.946 112.418 266.946 95.2824C266.946 78.1469 253.063 64.2634 235.927 64.2634C218.791 64.2634 204.908 78.1469 204.908 95.2824C204.908 112.418 218.791 126.301 235.927 126.301Z" fill="#2D2D2D" stroke="#1B1B1B" stroke-width="1.78"/>
    <path d="M180.029 57.7343L180.029 57.7347L181.216 59.7713L181.218 59.7747C181.424 60.1321 181.698 60.4577 182.025 60.7487C182.025 60.7492 182.026 60.7497 182.026 60.7503L189.7 67.5059C189.701 67.5063 189.701 67.5066 189.701 67.5069C191.508 69.0899 194.288 68.8032 195.649 66.8808L195.65 66.8806C204.553 54.3146 219.214 46.1049 235.798 46.1049C246.873 46.1049 257.095 49.7679 265.313 55.9549C268.278 58.1784 272.117 58.8821 275.695 57.8969L275.695 57.8967L287.702 54.5963C287.702 54.5962 287.703 54.596 287.704 54.5958C287.786 54.5723 287.861 54.5314 287.923 54.4775C287.696 54.2711 287.389 53.9944 287.009 53.6562C286.108 52.8557 284.796 51.7105 283.154 50.3357C279.868 47.5852 275.265 43.9194 269.993 40.2555C264.718 36.5898 258.79 32.9375 252.853 30.2045C246.905 27.466 241.015 25.6821 235.798 25.6821C213.132 25.6821 193.007 36.5134 180.299 53.2867L180.298 53.287C179.32 54.578 179.214 56.338 180.029 57.7343Z" fill="#2D2D2D" stroke="#1B1B1B" stroke-width="1.78"/>
    <path d="M206.14 10.5954L206.132 10.6001L206.124 10.6046L205.904 10.7316C199.709 14.417 192.63 16.3567 185.418 16.3567H172.496H167.973C167.211 16.3567 166.532 16.7355 166.227 17.3068C165.931 17.8651 165.945 18.4796 166.203 18.9678L166.208 18.9768L166.212 18.9858L167.486 21.5337C167.739 22.0394 167.866 22.583 167.866 23.1449V35.555C167.866 36.5627 168.681 37.3775 169.689 37.3775H199.821C205.155 37.3775 210.298 35.3969 214.25 31.8107L214.251 31.8103L215.082 31.0563L215.083 31.056C219.362 27.1819 224.931 25.0281 230.707 25.0281H241.176C243.164 25.0281 244.784 23.4149 244.784 21.4204C244.784 19.8983 243.824 18.5347 242.392 18.0202C242.392 18.0202 242.392 18.0202 242.392 18.0202L231.992 14.2851L231.992 14.285C224.74 11.6765 217.085 10.3424 209.371 10.3424H207.066C206.737 10.3424 206.411 10.4312 206.14 10.5954Z" fill="#2D2D2D" stroke="#1B1B1B" stroke-width="1.78"/>
    <path d="M99.393 -4.28529L99.1544 -4.10418H98.8549C94.7297 -4.10418 91.9951 -0.836188 92.7285 3.22799L92.7286 3.22901L96.9057 26.5324L96.906 26.534C97.3803 29.2089 99.2308 31.539 101.973 32.5628C102.856 32.8903 103.822 33.0271 104.817 33.0271H158.409C160.94 33.0271 163.422 32.2887 165.539 30.9021L165.539 30.902C168.159 29.1859 169.466 25.9487 168.583 22.7675L168.583 22.7666C168.143 21.1729 167.084 19.7847 165.706 18.7414L165.706 18.7412L145.617 3.51467L145.617 3.51448C138.641 -1.77698 130.338 -5.04386 121.626 -5.92864L121.716 -6.81387L121.626 -5.92864L109.598 -7.15051C105.956 -7.518 102.307 -6.49703 99.393 -4.28529Z" fill="#2D2D2D" stroke="#1B1B1B" stroke-width="1.78"/>
    <path d="M19.4904 47.591L19.4823 47.5948C17.846 48.3775 18.3448 50.8094 20.1254 50.9322C20.1256 50.9322 20.1258 50.9322 20.126 50.9322L20.6187 50.9668L20.623 50.9671C24.7013 51.2331 28.7748 50.8599 32.7595 50.0771C35.6333 49.516 38.6004 49.2184 41.6445 49.2184C48.6087 49.2184 55.1968 50.7657 61.1135 53.5286L61.1239 53.5334L61.1343 53.538C67.1184 56.1475 72.6355 60.0746 77.2361 65.2959L77.2371 65.2971C79.2513 67.5747 80.9853 69.9971 82.465 72.5312L82.465 72.5313C84.514 76.0401 86.9247 79.3464 89.8243 82.2284C89.8246 82.2287 89.8249 82.2289 89.8251 82.2292L90.1611 82.5652L90.1655 82.5696C91.4322 83.8189 93.6091 82.5935 93.0919 80.8278L93.0911 80.8252C90.9842 73.7112 87.3432 66.923 82.1163 60.9909L19.4904 47.591ZM19.4904 47.591C26.227 44.452 33.7301 42.7067 41.6445 42.7067C49.5563 42.7067 57.0732 44.4681 63.8065 47.604M19.4904 47.591L63.8065 47.604M63.8065 47.604C70.6086 50.5837 76.8912 55.0523 82.1161 60.9907L63.8065 47.604Z" fill="#2D2D2D" stroke="#1B1B1B" stroke-width="1.78"/>
    <path d="M43.442 83.9646L49.595 86.8331C50.245 87.1365 50.5223 87.9077 50.219 88.549L45.2965 99.1045C44.9932 99.7544 44.222 100.032 43.5807 99.7284L37.4277 96.8599C36.7777 96.5566 36.5004 95.7853 36.8037 95.144L41.7261 84.5886C42.0207 83.9473 42.792 83.6613 43.442 83.9646Z" fill="#2D2D2D" stroke="#1B1B1B" stroke-width="1.78"/>
    <path fill-rule="evenodd" clip-rule="evenodd" d="M89.6142 -14.953L95.7012 -12.1147L83.5272 13.9934L89.2556 16.6797C89.5849 16.8357 89.7323 17.2257 89.5763 17.5637L87.4877 22.0527C87.3317 22.3821 86.9417 22.5294 86.6038 22.3734L80.8728 19.6859L74.1066 34.1965L75.5716 34.8791C76.2996 35.217 76.6116 36.0837 76.2736 36.8116L62.659 65.9994C62.321 66.7273 61.4544 67.0393 60.7264 66.7013L59.267 66.0214L49.5667 86.8243L43.4798 83.986L53.1791 63.185L51.7049 62.4982C50.977 62.1602 50.665 61.2936 51.003 60.5657L64.6175 31.3779C64.9555 30.65 65.8222 30.338 66.5501 30.676L68.0187 31.3602L74.792 16.8343L74.1851 16.5497C73.8558 16.3937 73.7085 16.0037 73.8645 15.6658L75.9617 11.1767C76.109 10.8473 76.5077 10.7087 76.837 10.856L77.4464 11.1418L89.6142 -14.953Z" fill="#2D2D2D"/>
    <path d="M95.7012 -12.1147L96.0773 -12.9213L96.8839 -12.5452L96.5078 -11.7386L95.7012 -12.1147ZM89.6142 -14.953L88.8076 -15.3291L89.1837 -16.1357L89.9903 -15.7596L89.6142 -14.953ZM83.5272 13.9934L83.1493 14.7992L82.3453 14.4221L82.7206 13.6173L83.5272 13.9934ZM89.2556 16.6797L89.6335 15.8739L89.6366 15.8754L89.2556 16.6797ZM89.5763 17.5637L90.3844 17.9366L90.3832 17.9391L89.5763 17.5637ZM87.4877 22.0527L88.2947 22.4282L88.2921 22.4337L87.4877 22.0527ZM86.6038 22.3734L86.2308 23.1815L86.2259 23.1792L86.6038 22.3734ZM80.8728 19.6859L80.0662 19.3098L80.4432 18.5014L81.2507 18.8801L80.8728 19.6859ZM74.1066 34.1965L73.7308 35.0033L72.9238 34.6273L73.3 33.8204L74.1066 34.1965ZM75.5716 34.8791L75.1968 35.6863L75.1958 35.6858L75.5716 34.8791ZM76.2736 36.8116L77.0808 37.1864L77.0802 37.1878L76.2736 36.8116ZM62.659 65.9994L61.8518 65.6246L61.8524 65.6231L62.659 65.9994ZM60.7264 66.7013L60.3516 67.5086L60.3506 67.5081L60.7264 66.7013ZM59.267 66.0214L58.4604 65.6453L58.8364 64.8389L59.6428 65.2146L59.267 66.0214ZM49.5667 86.8243L50.3734 87.2005L49.9972 88.0071L49.1906 87.631L49.5667 86.8243ZM43.4798 83.986L43.1036 84.7926L42.297 84.4165L42.6731 83.6099L43.4798 83.986ZM53.1791 63.185L53.5549 62.3783L54.3619 62.7543L53.9857 63.5612L53.1791 63.185ZM51.7049 62.4982L52.0797 61.691L52.0808 61.6915L51.7049 62.4982ZM51.003 60.5657L50.1957 60.1909L50.1964 60.1894L51.003 60.5657ZM64.6175 31.3779L65.4248 31.7527L65.4241 31.7541L64.6175 31.3779ZM66.5501 30.676L66.9249 29.8687L66.926 29.8692L66.5501 30.676ZM68.0187 31.3602L68.8254 31.7363L68.4494 32.5427L67.6429 32.1669L68.0187 31.3602ZM74.792 16.8343L75.1699 16.0285L75.974 16.4056L75.5987 17.2104L74.792 16.8343ZM74.1851 16.5497L73.8072 17.3555L73.8041 17.354L74.1851 16.5497ZM73.8645 15.6658L73.0564 15.2928L73.0581 15.289L73.8645 15.6658ZM75.9617 11.1767L76.7741 11.5401L76.7711 11.5468L76.768 11.5534L75.9617 11.1767ZM76.837 10.856L77.2004 10.0436L77.2077 10.0468L77.2148 10.0502L76.837 10.856ZM77.4464 11.1418L78.253 11.5179L77.8761 12.3263L77.0685 11.9476L77.4464 11.1418ZM95.3251 -11.3081L89.2381 -14.1464L89.9903 -15.7596L96.0773 -12.9213L95.3251 -11.3081ZM82.7206 13.6173L94.8946 -12.4908L96.5078 -11.7386L84.3338 14.3695L82.7206 13.6173ZM88.8777 17.4855L83.1493 14.7992L83.9051 13.1876L89.6335 15.8739L88.8777 17.4855ZM88.7682 17.1907C88.7168 17.302 88.769 17.434 88.8746 17.484L89.6366 15.8754C90.4009 16.2374 90.7477 17.1493 90.3844 17.9366L88.7682 17.1907ZM86.6808 21.6773L88.7693 17.1882L90.3832 17.9391L88.2947 22.4282L86.6808 21.6773ZM86.9767 21.5653C86.8655 21.514 86.7335 21.566 86.6834 21.6717L88.2921 22.4337C87.93 23.1981 87.018 23.5448 86.2308 23.1815L86.9767 21.5653ZM81.2507 18.8801L86.9816 21.5676L86.2259 23.1792L80.495 20.4917L81.2507 18.8801ZM73.3 33.8204L80.0662 19.3098L81.6795 20.062L74.9133 34.5727L73.3 33.8204ZM74.4825 33.3898L75.9475 34.0723L75.1958 35.6858L73.7308 35.0033L74.4825 33.3898ZM75.9464 34.0718C77.1251 34.6191 77.6235 36.0175 77.0808 37.1864L75.4663 36.4368C75.5996 36.1498 75.4741 35.815 75.1968 35.6863L75.9464 34.0718ZM77.0802 37.1878L63.4656 66.3756L61.8524 65.6231L75.467 36.4354L77.0802 37.1878ZM63.4662 66.3742C62.919 67.5528 61.5206 68.0513 60.3516 67.5086L61.1012 65.8941C61.3882 66.0274 61.723 65.9019 61.8518 65.6246L63.4662 66.3742ZM60.3506 67.5081L58.8911 66.8281L59.6428 65.2146L61.1023 65.8946L60.3506 67.5081ZM48.7601 86.4482L58.4604 65.6453L60.0736 66.3975L50.3734 87.2005L48.7601 86.4482ZM43.8559 83.1794L49.9429 86.0177L49.1906 87.631L43.1036 84.7926L43.8559 83.1794ZM53.9857 63.5612L44.2864 84.3621L42.6731 83.6099L52.3725 62.8089L53.9857 63.5612ZM52.8032 63.9918L51.3291 63.305L52.0808 61.6915L53.5549 62.3783L52.8032 63.9918ZM51.3301 63.3055C50.1515 62.7582 49.653 61.3598 50.1957 60.1909L51.8102 60.9405C51.6769 61.2275 51.8024 61.5623 52.0797 61.691L51.3301 63.3055ZM50.1964 60.1894L63.811 31.0017L65.4241 31.7541L51.8095 60.9419L50.1964 60.1894ZM63.8103 31.0031C64.3575 29.8245 65.756 29.326 66.9249 29.8687L66.1753 31.4832C65.8883 31.3499 65.5535 31.4754 65.4248 31.7527L63.8103 31.0031ZM66.926 29.8692L68.3946 30.5534L67.6429 32.1669L66.1743 31.4827L66.926 29.8692ZM75.5987 17.2104L68.8254 31.7363L67.2121 30.9841L73.9854 16.4582L75.5987 17.2104ZM74.563 15.7439L75.1699 16.0285L74.4142 17.6401L73.8072 17.3555L74.563 15.7439ZM74.6726 16.0387C74.7239 15.9274 74.6718 15.7954 74.5661 15.7454L73.8041 17.354C73.0398 16.992 72.693 16.08 73.0564 15.2928L74.6726 16.0387ZM76.768 11.5534L74.6708 16.0425L73.0581 15.289L75.1553 10.8L76.768 11.5534ZM76.4735 11.6684C76.5276 11.6926 76.5845 11.6923 76.6329 11.6748C76.6834 11.6567 76.7415 11.6129 76.7741 11.5401L75.1493 10.8132C75.51 10.0068 76.4513 9.70848 77.2004 10.0436L76.4735 11.6684ZM77.0685 11.9476L76.4591 11.6618L77.2148 10.0502L77.8243 10.336L77.0685 11.9476ZM90.4208 -14.5769L78.253 11.5179L76.6398 10.7657L88.8076 -15.3291L90.4208 -14.5769Z" fill="#1B1B1B"/>
    <mask id="path-19-inside-2_5514_26170" fill="white">
        <path fill-rule="evenodd" clip-rule="evenodd" d="M213.913 43.7918L204.499 48.9725L227.466 89.0603C226.966 89.3717 226.793 90.025 227.085 90.5501L228.939 93.9212C229.234 94.4672 229.919 94.6665 230.465 94.3632L239.885 89.1808C240.431 88.8862 240.63 88.2015 240.327 87.6556L238.472 84.2844C238.178 83.7384 237.493 83.5391 236.947 83.8424L236.88 83.8792L213.913 43.7918Z"/>
    </mask>
    <path fill-rule="evenodd" clip-rule="evenodd" d="M213.913 43.7918L204.499 48.9725L227.466 89.0603C226.966 89.3717 226.793 90.025 227.085 90.5501L228.939 93.9212C229.234 94.4672 229.919 94.6665 230.465 94.3632L239.885 89.1808C240.431 88.8862 240.63 88.2015 240.327 87.6556L238.472 84.2844C238.178 83.7384 237.493 83.5391 236.947 83.8424L236.88 83.8792L213.913 43.7918Z" fill="#2D2D2D"/>
    <path d="M204.499 48.9725L202.954 49.8574L202.054 48.2861L203.641 47.413L204.499 48.9725ZM213.913 43.7918L213.055 42.2324L214.588 41.3889L215.458 42.907L213.913 43.7918ZM227.466 89.0603L229.01 88.1755L229.863 89.6635L228.408 90.5708L227.466 89.0603ZM227.085 90.5501L228.641 89.6856L228.644 89.6921L227.085 90.5501ZM228.939 93.9212L230.499 93.0633L230.503 93.0695L230.506 93.0758L228.939 93.9212ZM230.465 94.3632L229.6 92.8072L229.607 92.8036L230.465 94.3632ZM239.885 89.1808L239.027 87.6212L239.033 87.6178L239.039 87.6144L239.885 89.1808ZM240.327 87.6556L238.771 88.52L238.767 88.5135L240.327 87.6556ZM238.472 84.2844L236.913 85.1424L236.909 85.1361L236.906 85.1298L238.472 84.2844ZM236.947 83.8424L237.811 85.3984L237.805 85.402L236.947 83.8424ZM236.88 83.8792L237.738 85.4388L236.205 86.2821L235.336 84.7641L236.88 83.8792ZM203.641 47.413L213.055 42.2324L214.772 45.3513L205.357 50.532L203.641 47.413ZM225.921 89.9452L202.954 49.8574L206.043 48.0877L229.01 88.1755L225.921 89.9452ZM225.529 91.4145C224.777 90.0609 225.22 88.3631 226.524 87.5499L228.408 90.5708C228.713 90.3803 228.81 89.9891 228.641 89.6856L225.529 91.4145ZM227.38 94.7792L225.525 91.408L228.644 89.6921L230.499 93.0633L227.38 94.7792ZM231.329 95.9192C229.922 96.7008 228.142 96.191 227.373 94.7666L230.506 93.0758C230.326 92.7434 229.915 92.6322 229.6 92.8072L231.329 95.9192ZM240.743 90.7404L231.323 95.9228L229.607 92.8036L239.027 87.6212L240.743 90.7404ZM241.883 86.7911C242.664 88.1981 242.155 89.9785 240.73 90.7473L239.039 87.6144C238.707 87.7938 238.596 88.205 238.771 88.52L241.883 86.7911ZM240.032 83.4264L241.886 86.7976L238.767 88.5135L236.913 85.1424L240.032 83.4264ZM236.083 82.2864C237.49 81.5048 239.27 82.0146 240.039 83.439L236.906 85.1298C237.085 85.4623 237.496 85.5734 237.811 85.3984L236.083 82.2864ZM236.022 82.3197L236.089 82.2829L237.805 85.402L237.738 85.4388L236.022 82.3197ZM215.458 42.907L238.425 82.9944L235.336 84.7641L212.369 44.6767L215.458 42.907Z" fill="#1B1B1B" mask="url(#path-19-inside-2_5514_26170)"/>
    <path d="M238.867 93.7311L237.39 91.0449L233.836 93.0026L235.313 95.6885C235.313 95.6887 235.313 95.6889 235.313 95.6891C235.858 96.6744 237.094 97.0325 238.073 96.4921C239.054 95.9501 239.41 94.7153 238.868 93.7323L238.867 93.7311Z" fill="#2D2D2D" stroke="#1B1B1B" stroke-width="1.78"/>
    <path d="M170.968 112.834L171.102 112.791H171.243H177.301H181.235L191.932 106.997V105.529L179.083 102.518L178.884 102.472L178.726 102.344L164.854 91.116V114.821L170.968 112.834Z" fill="#2D2D2D" stroke="#1B1B1B" stroke-width="1.78"/>
    <path d="M185.246 65.4016L164.832 82.4294L169.47 87.074L186.742 66.9028L185.246 65.4016Z" fill="#2D2D2D" stroke="#1B1B1B" stroke-width="1.78"/>
    <path d="M215.768 45.1125L215.768 45.1125L215.769 45.1107C216.031 44.8543 216.178 44.5032 216.178 44.1344C216.178 43.378 215.563 42.7625 214.806 42.7625H162.567C161.81 42.7625 161.193 43.3788 161.186 44.1291V60.1755C161.186 60.5416 161.332 60.8885 161.593 61.1495L168.517 68.0738C168.777 68.3334 169.132 68.4804 169.491 68.4804H191.503C191.858 68.4804 192.206 68.3391 192.465 68.0854C192.466 68.0851 192.466 68.0849 192.466 68.0846L215.768 45.1125Z" fill="#2D2D2D" stroke="#1B1B1B" stroke-width="1.78"/>
    <path d="M166.887 73.537L166.887 73.537L161.539 79.1651L182.14 99.7658H191.443L200.016 99.4434V82.4308C200.016 81.2787 199.563 80.1796 198.752 79.3684L198.751 79.3679L192.85 73.458C192.039 72.6467 190.94 72.1934 189.788 72.1934H170.02C168.833 72.1934 167.706 72.6747 166.887 73.537Z" fill="#2D2D2D" stroke="#1B1B1B" stroke-width="1.78"/>
    <path d="M214.901 94.511L211.591 88.4164L206.274 89.3853L211.192 98.4434L214.901 94.511Z" fill="#2D2D2D" stroke="#1B1B1B" stroke-width="1.78"/>
    <path d="M212.076 98.3483L206.834 88.6945L176.8 105.003L182.042 114.657L212.076 98.3483Z" fill="#2D2D2D" stroke="#1B1B1B" stroke-width="1.78"/>
    <path d="M135.557 114.105L135.559 114.106C136.86 114.792 138.303 115.147 139.771 115.147H172.61V85.1697L152.688 75.1041H125.325L119.349 84.3912C119.349 84.3916 119.349 84.3919 119.349 84.3923C118.41 85.8606 117.912 87.5656 117.912 89.3019V99.3634C117.912 102.733 119.782 105.827 122.775 107.398L135.557 114.105Z" fill="#2D2D2D" stroke="#1B1B1B" stroke-width="1.78"/>
</svg>
