<svg width="25" height="24" viewBox="0 0 25 24" fill="none" xmlns="http://www.w3.org/2000/svg">
    <path fill-rule="evenodd" clip-rule="evenodd" d="M12.1113 4.72705C7.88572 4.72705 4.0624 7.41256 2.18954 11.6309C2.08526 11.8658 2.08526 12.1338 2.18954 12.3687C4.0624 16.587 7.88572 19.2725 12.1113 19.2725C16.3369 19.2725 20.1603 16.587 22.0331 12.3687C22.1374 12.1338 22.1374 11.8658 22.0331 11.6309C20.1603 7.41256 16.3369 4.72705 12.1113 4.72705ZM20.2 12C18.5603 15.3635 15.4741 17.4545 12.1117 17.4545C8.74935 17.4545 5.6632 15.3635 4.02344 12C5.6632 8.63639 8.74935 6.54541 12.1117 6.54541C15.4741 6.54541 18.5603 8.63639 20.2 12ZM12.111 15.636C10.1027 15.636 8.47461 14.008 8.47461 11.9996C8.47461 9.99134 10.1027 8.36328 12.111 8.36328C14.1193 8.36328 15.7473 9.99134 15.7473 11.9996C15.7473 14.008 14.1193 15.636 12.111 15.636ZM13.9293 11.9998C13.9293 13.004 13.1153 13.818 12.1112 13.818C11.107 13.818 10.293 13.004 10.293 11.9998C10.293 10.9957 11.107 10.1816 12.1112 10.1816C13.1153 10.1816 13.9293 10.9957 13.9293 11.9998Z" fill="white"/>
</svg>
